<?xml version="1.0" standalone="no"?>
<!DOCTYPE svg PUBLIC "-//W3C//DTD SVG 20010904//EN"
 "http://www.w3.org/TR/2001/REC-SVG-20010904/DTD/svg10.dtd">
<svg version="1.0" xmlns="http://www.w3.org/2000/svg"
 width="900.000000pt" height="900.000000pt" viewBox="0 0 900.000000 900.000000"
 preserveAspectRatio="xMidYMid meet">
<metadata>
Created by potrace 1.11, written by Peter Selinger 2001-2013
</metadata>
<g transform="translate(0.000000,900.000000) scale(0.100000,-0.100000)"
fill="#000000" stroke="none">
<path d="M0 4500 l0 -4500 4500 0 4500 0 -2 857 -3 858 -75 22 c-141 41 -412
138 -475 170 -22 11 -57 26 -78 33 -21 6 -51 23 -67 36 -16 14 -57 34 -92 45
-34 12 -78 33 -98 49 -57 45 -89 57 -200 75 -64 11 -116 25 -133 37 -21 14
-52 22 -108 25 -50 4 -78 10 -76 17 2 5 26 21 53 35 40 21 70 26 169 32 66 4
134 10 150 14 62 13 286 -67 469 -168 72 -39 154 -81 181 -93 54 -23 164 -77
288 -143 43 -22 82 -41 87 -41 6 0 10 1315 10 3570 l0 3570 -1785 0 c-982 0
-1785 -2 -1785 -4 0 -2 25 -53 54 -113 44 -87 55 -119 57 -163 2 -56 -15 -100
-38 -100 -7 0 -13 -4 -13 -10 0 -5 -11 -10 -25 -10 -14 0 -25 -5 -25 -11 0 -8
-13 -9 -39 -5 -22 3 -41 2 -43 -3 -2 -6 -43 -11 -93 -12 l-89 -2 -48 54 c-26
30 -53 66 -59 82 -6 15 -15 27 -20 27 -5 0 -9 5 -9 10 0 6 -5 16 -10 23 -6 7
-37 47 -70 89 -32 42 -80 93 -106 112 l-47 36 -2403 0 -2404 0 0 -4500z m1355
3923 c9 -31 47 -115 85 -187 37 -73 84 -182 105 -246 51 -159 93 -258 262
-618 9 -18 18 -30 21 -28 3 3 4 42 3 86 -2 86 13 154 32 147 7 -2 13 -12 15
-23 2 -10 31 -129 63 -264 46 -188 68 -260 96 -310 19 -36 83 -157 140 -270
106 -206 140 -266 177 -307 27 -32 37 -29 29 9 -4 21 -3 29 5 24 8 -4 8 3 1
26 -12 42 -12 61 1 53 6 -4 6 5 -1 22 -10 26 -6 175 6 244 3 14 7 99 9 190 2
90 12 209 21 264 37 227 55 396 55 532 l0 142 33 25 c19 14 48 31 66 37 30 10
35 9 63 -17 50 -48 70 -104 79 -233 9 -124 27 -233 40 -241 4 -3 10 -35 13
-70 4 -60 25 -119 62 -180 8 -14 32 -59 52 -100 l37 -75 0 -240 c0 -226 -7
-326 -23 -310 -4 4 -8 11 -8 16 -3 22 -5 23 -13 10 -7 -11 -18 -6 -50 28 -23
23 -41 51 -41 61 0 10 -8 20 -18 22 -14 4 -20 18 -25 59 -4 30 -11 55 -17 57
-6 2 -17 10 -24 18 -19 18 -26 18 -26 -1 0 -8 -4 -15 -10 -15 -5 0 -10 7 -10
15 0 8 -4 15 -10 15 -5 0 -10 -17 -10 -38 0 -21 -6 -44 -12 -50 -10 -10 -10
-15 2 -22 12 -7 12 -12 2 -22 -6 -6 -12 -20 -12 -29 0 -10 -6 -19 -12 -21 -7
-3 -13 -11 -14 -19 -1 -22 -36 -99 -45 -99 -8 0 -24 -44 -33 -90 -8 -39 -45
-166 -45 -157 -1 5 -5 5 -11 2 -9 -6 101 -229 222 -450 30 -55 78 -143 105
-195 28 -52 59 -111 70 -130 88 -159 228 -534 257 -688 8 -45 42 -122 54 -122
14 0 49 177 63 317 10 95 10 134 1 174 -24 104 -9 165 57 220 33 28 41 30 93
26 35 -3 63 -1 71 6 8 7 32 55 52 107 41 107 148 329 195 405 17 28 38 66 48
85 9 19 20 37 24 38 5 2 8 8 8 13 0 11 119 220 129 229 4 3 12 16 19 30 7 14
21 39 31 55 10 17 51 93 91 170 40 76 91 170 114 209 103 176 178 352 268 624
38 118 90 255 116 305 55 110 50 103 62 91 7 -7 4 -32 -9 -75 -23 -76 -39
-184 -81 -534 -16 -143 -35 -300 -41 -350 -9 -77 -23 -388 -34 -750 -3 -94
-12 -205 -21 -250 -2 -11 -11 -74 -19 -140 -9 -66 -20 -138 -24 -160 -8 -37
-9 -38 -11 -10 l-2 30 -10 -35 c-6 -19 -11 -54 -11 -77 0 -24 -3 -40 -8 -37
-5 3 -8 -16 -8 -43 2 -45 2 -46 8 -13 l7 35 7 -28 c9 -34 0 -70 -15 -61 -6 4
-6 -1 1 -14 15 -28 14 -37 -2 -23 -11 9 -14 5 -15 -20 -1 -29 0 -30 13 -13 13
17 14 17 15 2 0 -9 -7 -21 -16 -26 -14 -8 -14 -10 0 -25 15 -15 24 -9 111 81
51 53 126 131 167 173 314 325 677 856 976 1430 50 96 123 230 161 299 39 68
71 128 71 133 0 5 8 21 19 35 10 15 44 77 76 138 60 117 145 234 170 234 8 0
15 -3 15 -7 0 -9 -497 -1004 -553 -1108 -41 -75 -138 -252 -195 -355 -14 -25
-55 -92 -90 -150 -36 -58 -84 -136 -107 -175 -36 -61 -178 -285 -294 -466 -76
-118 -106 -159 -119 -159 -7 0 -10 -4 -7 -10 3 -5 -1 -10 -10 -10 -11 0 -15
-6 -11 -17 5 -19 -17 -50 -49 -69 -11 -7 -19 -20 -18 -29 1 -10 -10 -35 -23
-56 -13 -21 -24 -44 -24 -50 0 -8 -6 -7 -17 2 -15 12 -16 12 -11 -8 3 -12 3
-22 -1 -21 -21 2 -29 -6 -35 -34 -5 -25 -9 -30 -16 -18 -5 8 -12 11 -17 7 -4
-4 -2 -17 5 -28 13 -20 9 -32 -18 -59 -3 -3 -11 -17 -18 -31 -8 -14 -23 -38
-35 -52 -12 -14 -38 -46 -57 -71 -19 -25 -41 -45 -47 -46 -7 0 -13 -7 -13 -15
0 -8 -3 -15 -8 -15 -4 0 -22 -13 -40 -30 -27 -24 -31 -34 -26 -57 4 -20 3 -24
-4 -14 -9 12 -13 12 -27 -3 -13 -12 -14 -20 -6 -30 6 -7 8 -16 4 -19 -12 -12
-23 -7 -23 10 0 13 -3 14 -12 5 -7 -7 -8 -16 -2 -24 7 -9 0 -40 -18 -93 -15
-44 -28 -75 -28 -70 -1 19 -30 -29 -30 -50 0 -12 -9 -30 -20 -40 -11 -10 -20
-26 -20 -37 0 -10 -10 -28 -22 -40 -14 -14 -18 -23 -10 -26 7 -2 12 -13 12
-25 0 -16 3 -18 12 -9 8 8 8 15 -2 27 -7 8 -10 19 -6 22 8 8 26 -15 26 -33 0
-7 -11 -22 -25 -35 -25 -24 -33 -49 -16 -49 14 0 91 90 112 132 28 55 49 119
49 153 0 47 11 79 21 63 6 -9 9 -6 9 10 0 29 27 82 43 84 6 0 17 2 23 2 6 1
19 7 27 15 23 18 110 16 141 -4 13 -9 30 -15 38 -14 7 1 21 1 32 0 15 -1 16
-4 6 -16 -11 -13 -11 -20 0 -40 7 -14 18 -25 24 -25 14 0 36 -47 36 -74 -1
-16 -5 -12 -15 12 -15 33 -40 36 -32 4 2 -10 -3 -29 -10 -44 -13 -26 -23 -32
-49 -29 -6 1 -16 -10 -22 -24 -7 -14 -23 -30 -38 -35 -86 -33 -168 -97 -334
-260 -162 -161 -173 -173 -155 -186 24 -18 41 -18 49 1 3 8 9 14 13 13 21 -6
90 28 120 58 18 19 46 37 61 40 15 4 38 14 51 23 23 15 24 15 12 -6 -16 -31
-14 -43 7 -37 15 5 16 4 1 -8 -9 -7 -19 -27 -23 -44 -4 -16 -18 -42 -32 -58
-32 -34 -25 -43 18 -23 19 9 46 13 63 10 25 -5 28 -3 18 8 -11 10 -6 16 25 31
20 9 47 17 60 18 13 0 21 4 17 9 -9 16 15 24 31 11 12 -11 1 -21 -68 -61 -46
-26 -84 -44 -86 -39 -2 6 -8 10 -14 10 -11 0 -39 -26 -38 -37 0 -4 -10 -8 -23
-9 -12 0 -21 -6 -19 -13 1 -7 -7 -22 -19 -32 -12 -10 -19 -19 -15 -19 8 0 85
34 139 61 43 22 47 23 47 9 0 -5 -5 -10 -10 -10 -6 0 -32 -15 -58 -33 -26 -18
-90 -59 -142 -91 -52 -32 -86 -55 -75 -52 26 7 226 28 291 30 28 0 58 6 66 13
8 7 39 12 70 12 31 -1 61 2 66 5 6 3 34 8 62 11 79 7 163 22 290 50 195 43
512 103 580 110 36 3 148 17 250 30 197 26 489 45 685 45 66 0 138 5 160 11
36 9 284 20 715 32 88 3 156 10 173 17 22 11 32 11 52 0 22 -12 55 -10 228 8
111 12 283 36 382 53 99 16 220 34 268 40 48 5 138 20 199 34 61 14 113 23
116 20 37 -37 -223 -141 -773 -311 -66 -20 -174 -54 -240 -76 -66 -22 -145
-45 -175 -52 -85 -21 -213 -57 -232 -67 -10 -5 -46 -13 -80 -18 -35 -5 -76
-15 -93 -21 -16 -7 -55 -18 -85 -26 -30 -8 -61 -21 -70 -28 -8 -8 -39 -19 -69
-25 -30 -6 -59 -15 -65 -20 -6 -5 -29 -12 -51 -16 -21 -3 -55 -15 -75 -25 -20
-10 -70 -25 -111 -34 -73 -14 -135 -34 -194 -61 -33 -16 -194 -55 -224 -55
-11 0 -22 -7 -25 -15 -4 -12 -14 -14 -38 -10 -21 4 -48 0 -73 -11 -22 -9 -65
-23 -95 -30 -54 -12 -130 -37 -180 -57 -45 -19 -114 -36 -147 -37 -18 0 -52
-11 -75 -24 -24 -13 -68 -29 -98 -36 -30 -7 -101 -28 -158 -46 -57 -19 -114
-34 -126 -34 -27 0 -76 -35 -76 -55 0 -15 -37 -27 -45 -15 -3 5 5 12 16 15 21
7 21 8 4 18 -14 7 -21 6 -31 -8 -7 -10 -11 -22 -8 -26 7 -12 -42 -22 -71 -15
-14 4 -49 -2 -82 -13 -51 -18 -103 -30 -207 -48 -17 -3 -31 -1 -36 7 -6 9 -18
8 -54 -4 -26 -9 -59 -16 -74 -16 -21 0 -24 -2 -12 -10 11 -8 3 -10 -30 -9 -51
2 -122 -13 -164 -35 -16 -8 -35 -12 -42 -9 -8 3 -26 -2 -40 -12 -14 -9 -35
-15 -47 -13 -18 4 -14 8 22 23 l43 18 -23 18 c-26 20 -49 24 -49 9 0 -5 6 -10
13 -10 6 0 0 -7 -16 -15 -16 -8 -60 -15 -105 -16 -81 -2 -172 -18 -172 -31 0
-5 -11 -8 -24 -8 -13 0 -36 -7 -52 -14 -31 -17 -46 -13 -37 10 5 14 1 15 -25
9 -19 -4 -32 -3 -32 3 0 18 -29 22 -44 6 -11 -11 -21 -12 -34 -5 -10 5 -46 8
-79 6 -45 -3 -63 0 -67 10 -8 22 -87 17 -93 -5 -4 -15 -12 -17 -44 -13 -29 4
-43 1 -52 -10 -7 -9 -23 -17 -37 -19 -13 -2 -30 -13 -36 -25 -11 -23 -27 -21
-18 2 6 16 -23 28 -32 13 -4 -5 -1 -14 5 -18 18 -10 -6 -27 -53 -35 -28 -6
-37 -5 -32 4 4 6 16 11 26 11 10 0 22 5 26 11 7 12 -22 8 -105 -13 -40 -10
-42 -12 -21 -20 13 -5 29 -7 36 -4 8 3 11 0 8 -9 -6 -15 -50 -29 -64 -20 -4 3
-11 -1 -13 -7 -5 -13 -11 16 -8 39 3 21 -77 12 -82 -9 -6 -21 -37 -24 -55 -6
-9 9 -15 10 -20 2 -4 -6 -23 -15 -42 -19 -19 -4 -39 -10 -45 -14 -5 -4 -28
-13 -50 -20 -22 -8 -53 -24 -68 -37 -16 -13 -35 -24 -43 -24 -8 0 -49 -11 -92
-24 -42 -13 -129 -36 -192 -51 -63 -15 -120 -31 -127 -37 -7 -5 -17 -7 -23 -3
-5 3 -10 1 -10 -4 0 -6 -9 -11 -20 -11 -11 0 -20 5 -20 10 0 6 7 10 15 10 8 0
15 7 15 15 0 8 4 15 9 15 5 0 33 22 63 48 55 50 198 157 278 208 25 15 66 46
93 67 41 34 49 37 64 26 15 -12 16 -12 10 4 -4 12 -3 16 4 11 6 -4 14 -2 18 3
3 5 44 37 91 70 116 84 190 155 190 181 0 12 -5 22 -11 22 -5 0 -8 -4 -5 -9 3
-5 -12 -20 -34 -35 -25 -16 -40 -21 -40 -14 1 16 35 58 47 58 14 0 33 46 33
78 -1 25 -1 26 -12 7 -13 -25 -38 -45 -54 -45 -15 0 -64 43 -64 56 0 5 -12 22
-25 37 -22 25 -31 28 -76 26 -48 -3 -53 -1 -85 36 -20 24 -29 42 -23 46 6 3 9
26 7 50 -5 63 14 143 36 147 32 7 66 -8 66 -27 0 -21 25 -45 38 -37 5 3 22 -8
37 -24 16 -17 37 -30 47 -30 16 0 47 -40 31 -40 -4 0 -1 -6 8 -13 9 -7 19 -19
22 -27 4 -9 5 -6 3 7 -2 13 0 26 5 29 5 3 9 15 9 27 0 44 19 -6 26 -70 6 -59
23 -79 25 -30 1 18 2 17 9 -7 5 -16 5 -36 1 -45 -13 -25 -21 -115 -9 -103 24
24 33 117 33 337 -1 326 -35 596 -84 665 -9 14 -20 33 -24 43 -3 9 -11 17 -17
17 -6 0 -9 4 -5 9 6 11 -407 431 -424 431 -5 0 -16 6 -23 13 -7 7 -71 52 -143
99 -307 206 -388 287 -494 503 -177 359 -285 750 -306 1105 -11 195 -36 394
-70 555 -18 88 -36 191 -40 229 -4 38 -18 98 -32 135 -16 43 -26 89 -26 131
-2 62 -1 65 21 65 20 0 33 -16 74 -95 64 -118 153 -256 191 -295 10 -9 17 -28
17 -43 1 -34 26 -142 36 -150 11 -11 -6 119 -22 170 -9 27 -12 53 -7 60 12 19
11 57 -2 55 -5 -1 -9 3 -8 8 0 6 4 37 6 70 4 43 3 50 -2 25 l-8 -35 -2 43 c-1
27 3 42 12 42 7 1 5 6 -5 14 -14 10 -18 28 -18 73 0 32 -11 103 -25 156 -14
54 -30 119 -35 145 -15 74 -45 196 -83 342 -63 246 -101 465 -92 538 4 28 8
52 10 52 2 0 11 -26 20 -57z m5910 -323 c33 -11 80 -24 103 -30 39 -10 278
-122 292 -137 13 -15 -183 17 -380 62 -77 17 -135 11 -207 -21 -67 -31 -81
-30 -161 8 -97 47 -157 43 -271 -18 -48 -26 -88 -51 -89 -55 -5 -13 -62 -41
-62 -31 0 14 100 106 145 134 52 32 113 55 189 73 33 8 84 21 111 29 66 20
246 12 330 -14z m-1307 -177 c55 -88 51 -119 -9 -69 -31 27 -43 25 -135 -16
-22 -10 -48 -18 -57 -18 -9 0 -19 -4 -22 -10 -3 -5 -13 -10 -22 -10 -12 0 -14
8 -10 38 7 43 33 67 90 84 23 7 45 16 48 21 5 7 46 21 80 26 4 1 20 -20 37
-46z m-708 32 c0 -6 -97 -207 -109 -225 -6 -8 -33 -55 -62 -105 -75 -129 -93
-155 -104 -155 -10 0 -65 -114 -65 -133 0 -5 -12 -34 -26 -65 -14 -31 -33 -93
-41 -136 -27 -144 -78 -212 -134 -178 -33 21 -49 4 -112 -117 -22 -42 -43 -78
-46 -81 -4 -3 -15 -24 -25 -48 -11 -23 -25 -47 -33 -53 -10 -9 -13 -4 -13 27
0 22 6 49 13 60 6 12 23 41 36 65 13 24 34 55 47 68 13 13 24 32 24 42 0 11 7
19 15 19 8 0 15 8 15 17 0 16 64 118 86 138 24 21 97 152 111 200 21 70 52
127 126 236 35 52 77 119 92 149 58 115 205 313 205 275z m305 -335 c3 -5 2
-17 -3 -27 -5 -10 -20 -40 -34 -67 -14 -28 -30 -52 -36 -54 -21 -7 -13 52 14
106 24 49 45 64 59 42z m1815 -2090 c0 -5 -22 -21 -49 -34 -26 -14 -61 -36
-77 -49 -62 -51 -135 -97 -154 -97 -56 0 -311 -155 -381 -232 -9 -9 -29 -22
-45 -28 -15 -6 -70 -36 -121 -67 -83 -49 -100 -55 -158 -59 -113 -6 -78 38 75
96 47 17 102 38 123 46 20 8 95 54 165 103 70 49 183 118 252 153 69 36 143
74 165 85 89 47 151 76 175 84 14 4 26 8 28 8 1 1 2 -3 2 -9z m-3000 -115 c0
-8 -4 -15 -10 -15 -5 0 -10 7 -10 15 0 8 5 15 10 15 6 0 10 -7 10 -15z m1928
-474 c-1 -5 -57 -37 -123 -72 -66 -34 -156 -85 -200 -114 -44 -28 -105 -68
-135 -87 -71 -46 -281 -166 -348 -198 -28 -14 -51 -29 -52 -35 0 -5 -17 -21
-38 -35 -20 -14 -39 -27 -42 -30 -3 -3 -25 -16 -50 -29 -25 -13 -64 -37 -88
-53 -23 -16 -56 -34 -73 -40 -17 -6 -41 -21 -53 -33 -13 -13 -43 -33 -66 -45
-37 -19 -49 -21 -78 -12 -23 7 -41 8 -53 2 -24 -14 -29 -12 -23 5 4 8 15 15
25 15 10 0 18 3 18 8 -4 23 4 34 33 46 l31 14 -34 7 c-19 4 -42 17 -52 28 -14
16 -17 17 -14 5 6 -17 -11 -28 -44 -28 -10 0 -19 -4 -19 -10 0 -5 -18 -10 -40
-10 -29 0 -42 -5 -50 -19 -18 -34 -12 -41 33 -38 41 4 42 3 44 -30 1 -28 -2
-33 -20 -32 -21 0 -21 1 -2 8 16 7 12 10 -23 16 -24 4 -46 14 -49 22 -5 13 -7
13 -15 -1 -19 -33 -67 -12 -67 29 0 11 -5 42 -11 68 -15 60 -11 70 35 91 28
14 50 16 89 12 47 -6 55 -4 80 19 15 14 29 25 31 25 3 0 48 11 102 25 54 14
139 32 188 40 129 20 245 48 365 88 103 35 151 57 360 172 198 109 365 192
376 188 6 -2 17 3 24 12 14 16 34 21 28 6z m884 -145 c3 -13 0 -30 -6 -38 -15
-20 -74 -53 -81 -46 -4 3 5 29 19 57 29 56 60 69 68 27z m-2890 -218 c-7 -7
-12 -8 -12 -2 0 6 3 14 7 17 3 4 9 5 12 2 2 -3 -1 -11 -7 -17z m613 -468 c3
-5 1 -10 -4 -10 -6 0 -11 5 -11 10 0 6 2 10 4 10 3 0 8 -4 11 -10z m-85 -24
c0 -3 -4 -8 -10 -11 -5 -3 -10 -1 -10 4 0 6 5 11 10 11 6 0 10 -2 10 -4z m-21
-89 c-2 -2 -24 -19 -49 -39 -25 -19 -56 -41 -70 -47 -20 -10 -18 -6 10 19 42
38 103 79 109 74 2 -2 2 -5 0 -7z m-204 -147 c-3 -5 -11 -10 -16 -10 -6 0 -7
5 -4 10 3 6 11 10 16 10 6 0 7 -4 4 -10z m-55 -30 c-20 -13 -33 -13 -25 0 3 6
14 10 23 10 15 0 15 -2 2 -10z m-70 -35 c0 -8 -7 -15 -15 -15 -26 0 -18 20 13
29 1 1 2 -6 2 -14z m1430 -757 c-14 -5 -33 -14 -42 -19 -10 -5 -23 -9 -30 -9
-21 1 55 39 77 39 17 0 16 -2 -5 -11z m-1021 -312 c-2 -2 -22 -6 -44 -9 -27
-4 -35 -3 -25 3 14 9 79 15 69 6z m-755 -142 c30 -12 16 -19 -30 -15 -32 2
-42 6 -33 12 16 10 41 11 63 3z m-817 -20 c-3 -3 -12 -4 -19 -1 -8 3 -5 6 6 6
11 1 17 -2 13 -5z m-172 -93 c-6 -5 -23 -12 -40 -15 l-30 -6 30 14 c35 18 54
20 40 7z m-78 -27 c-3 -3 -12 -4 -19 -1 -8 3 -5 6 6 6 11 1 17 -2 13 -5z
m-1367 -769 c9 -10 10 -31 6 -68 -10 -74 -7 -228 5 -322 6 -44 12 -89 14 -100
1 -11 9 -44 18 -74 20 -66 20 -61 2 -61 -8 0 -15 8 -15 18 0 10 -9 35 -20 57
-11 22 -20 46 -20 55 0 13 -1 13 -10 0 -5 -8 -10 -41 -10 -72 0 -59 -8 -70
-31 -42 -24 29 -9 573 16 615 9 14 31 11 45 -6z m104 -707 c8 -13 24 -57 36
-98 41 -136 51 -165 63 -173 8 -6 7 -7 -3 -5 -8 3 -24 28 -36 56 -11 28 -28
60 -37 70 -9 10 -17 31 -17 45 0 15 -9 35 -20 44 -12 11 -20 30 -20 50 0 38
14 42 34 11z m135 -347 c13 -46 14 -51 2 -51 -7 0 -41 75 -41 93 0 3 6 4 14 1
7 -3 18 -22 25 -43z m-659 -83 c145 -50 169 -60 174 -75 4 -9 -9 -7 -42 6 -39
16 -166 47 -272 68 -66 12 -140 14 -194 4 -62 -11 -86 -4 -86 26 0 13 24 14
158 11 149 -4 162 -6 262 -40z m700 -54 c0 -8 -4 -12 -10 -9 -5 3 -10 10 -10
16 0 5 5 9 10 9 6 0 10 -7 10 -16z"/>
<path d="M1622 6685 c0 -16 2 -22 5 -12 2 9 2 23 0 30 -3 6 -5 -1 -5 -18z"/>
<path d="M3746 5363 c-3 -4 -6 -14 -6 -23 0 -10 -7 -23 -15 -30 -8 -7 -15 -25
-15 -41 0 -24 4 -29 25 -29 22 0 25 4 25 39 0 22 5 43 10 46 6 3 10 12 10 20
0 14 -24 27 -34 18z"/>
<path d="M3722 5218 c-1 -10 -5 -18 -10 -18 -4 0 -13 -15 -20 -32 -7 -18 -18
-41 -23 -50 -11 -22 -12 -68 0 -68 17 0 62 119 58 153 -2 17 -5 24 -5 15z"/>
<path d="M3942 5068 c7 -19 38 -22 38 -4 0 10 -9 16 -21 16 -12 0 -19 -5 -17
-12z"/>
<path d="M4601 5054 c0 -11 3 -14 6 -6 3 7 2 16 -1 19 -3 4 -6 -2 -5 -13z"/>
<path d="M4471 4881 c-17 -13 -20 -20 -12 -26 11 -6 40 20 41 38 0 10 -2 9
-29 -12z"/>
<path d="M3326 4823 c-10 -37 -22 -87 -28 -111 -13 -52 -7 -60 25 -36 22 17
25 29 30 109 3 49 2 94 -2 98 -5 5 -16 -22 -25 -60z"/>
<path d="M4405 4819 c-4 -11 -4 -23 -1 -26 3 -4 6 1 6 10 0 10 5 17 10 17 6 0
10 -5 10 -11 0 -5 5 -7 10 -4 8 5 7 11 -1 21 -16 20 -27 18 -34 -7z"/>
<path d="M4320 4700 c0 -5 5 -10 10 -10 6 0 10 5 10 10 0 6 -4 10 -10 10 -5 0
-10 -4 -10 -10z"/>
<path d="M4335 4261 c-3 -5 -1 -12 5 -16 5 -3 10 1 10 9 0 18 -6 21 -15 7z"/>
<path d="M3975 4090 c-3 -5 1 -10 9 -10 8 0 19 -7 24 -16 5 -9 15 -15 21 -13
8 3 5 12 -9 27 -23 24 -35 27 -45 12z"/>
<path d="M4324 3714 c-18 -14 -18 -15 4 -4 12 6 22 13 22 15 0 8 -5 6 -26 -11z"/>
<path d="M6535 3663 c-16 -11 -35 -13 -85 -7 -72 8 -80 9 -163 4 -45 -3 -60
-8 -68 -23 -7 -12 -18 -17 -30 -14 -30 8 -249 -12 -304 -28 -27 -8 -74 -13
-103 -13 -30 1 -57 -3 -60 -9 -4 -5 -47 -15 -97 -23 -49 -7 -95 -17 -100 -21
-12 -9 -132 -30 -190 -33 -22 -1 -51 -7 -65 -13 -14 -6 -47 -13 -75 -16 -27
-3 -75 -9 -106 -12 -47 -6 -57 -5 -62 9 -7 18 -53 21 -77 6 -11 -8 -8 -9 13
-4 20 5 27 2 27 -9 0 -19 -21 -27 -71 -27 -40 0 -52 13 -23 24 9 4 14 9 11 12
-3 3 -27 -1 -54 -9 -26 -9 -72 -19 -101 -22 -35 -5 -57 -13 -66 -27 -9 -12
-16 -15 -21 -9 -3 6 -17 11 -31 11 -13 0 -24 4 -24 10 0 15 33 28 91 35 53 6
67 10 119 33 14 7 39 16 55 22 55 21 6 30 -70 14 -39 -8 -81 -15 -95 -15 -20
1 -22 -1 -10 -9 12 -8 11 -10 -8 -10 -13 0 -20 4 -17 10 3 6 -1 10 -9 10 -8 0
-18 -4 -21 -10 -11 -18 -100 -51 -125 -46 -14 2 -79 -7 -145 -21 -144 -31
-127 -29 -195 -19 -65 9 -125 -5 -265 -64 -80 -33 -263 -96 -425 -145 -30 -9
-101 -39 -157 -67 -82 -39 -101 -53 -96 -66 6 -15 4 -15 -10 -4 -14 12 -19 10
-39 -8 l-23 -21 30 6 c29 6 29 6 10 -10 -11 -9 -27 -20 -35 -25 -8 -5 -12 -11
-9 -15 8 -7 91 28 110 47 19 19 89 33 89 18 0 -6 5 -8 10 -5 6 4 8 11 5 16 -4
5 4 9 17 9 20 -1 21 -2 6 -11 -10 -5 -18 -15 -18 -20 0 -15 -42 -48 -60 -49
-9 0 -21 -5 -28 -12 -9 -9 -12 -9 -12 0 0 9 -8 7 -26 -4 -14 -9 -23 -23 -20
-29 6 -16 -35 -55 -57 -55 -9 0 -19 -4 -22 -10 -3 -5 -15 -10 -25 -10 -13 0
-17 -5 -14 -14 3 -8 -3 -19 -15 -26 -14 -7 -21 -7 -21 0 0 5 -4 10 -10 10 -5
0 -10 -20 -10 -44 0 -26 -6 -48 -15 -56 -8 -7 -15 -18 -15 -24 1 -6 8 -2 18 9
13 16 32 21 82 23 53 2 68 6 81 24 9 11 19 16 22 11 5 -8 30 -9 95 -4 6 1 12
9 12 19 0 14 9 18 42 19 24 1 44 7 46 13 3 8 8 7 18 -1 16 -13 73 5 87 27 4 7
14 11 23 7 10 -4 17 2 21 16 4 16 13 21 37 21 24 0 28 3 16 11 -11 7 -6 8 20
3 l35 -7 -25 22 -25 22 31 -5 c42 -7 81 3 62 16 -9 7 -7 8 7 2 43 -16 69 -10
83 18 22 47 -22 96 -46 52 -7 -13 -11 -14 -17 -4 -5 8 -2 18 9 25 14 10 7 14
-44 25 -33 7 -60 16 -60 20 0 16 27 29 50 23 19 -5 22 -3 17 12 -6 15 -3 17
24 11 25 -5 32 -2 36 14 4 16 24 29 53 35 47 10 77 19 85 25 19 15 153 80 165
80 7 0 23 9 37 20 30 24 45 26 37 6 -5 -13 -1 -13 26 -3 20 8 26 13 16 15 -9
2 -16 7 -16 12 0 16 19 21 38 11 11 -6 23 -6 28 -1 5 5 41 11 79 13 45 3 69 8
68 15 -2 8 5 9 23 2 17 -7 39 -7 65 0 34 9 42 8 61 -10 26 -24 48 -26 48 -5 0
8 6 15 13 15 15 -1 54 -30 41 -31 -5 -1 -13 -2 -19 -4 -5 -1 -16 -3 -22 -3 -7
-1 -13 -10 -13 -20 0 -26 -10 -33 -32 -21 -21 11 -61 3 -53 -11 3 -5 12 -7 20
-3 8 3 15 1 15 -4 0 -12 -45 -33 -71 -33 -11 0 -30 -5 -42 -12 -12 -7 -28 -13
-35 -14 -8 -1 -17 -5 -20 -9 -4 -4 16 -4 43 0 28 3 61 6 75 6 14 1 28 6 32 12
6 9 11 8 17 -3 7 -10 5 -20 -6 -33 -12 -12 -19 -14 -24 -6 -5 8 -16 7 -40 -5
-21 -11 -35 -13 -37 -6 -5 15 -32 12 -32 -4 0 -10 -19 -15 -72 -18 -87 -5
-156 -31 -139 -52 9 -10 20 -11 52 -2 31 8 42 8 48 -2 12 -20 100 -17 161 5 8
3 26 6 40 8 14 1 57 11 95 22 39 12 88 24 110 28 21 4 52 13 67 21 30 16 110
35 143 35 11 0 27 7 36 15 22 20 215 56 258 48 22 -4 36 -2 41 6 6 10 15 9 44
-1 32 -11 43 -10 101 10 36 12 69 19 74 16 5 -3 22 0 38 7 15 6 51 12 78 13
28 1 102 12 165 24 63 13 137 27 164 31 27 5 56 16 65 24 9 7 50 19 91 25 140
20 327 59 353 72 37 20 68 29 62 19 -7 -11 18 -13 52 -4 14 4 20 11 16 18 -5
8 -3 8 8 0 23 -18 58 1 65 35 4 19 11 28 20 24 7 -2 23 2 34 10 21 15 21 15
-13 26 -19 6 -41 9 -49 6 -8 -3 -26 -2 -39 4 -18 6 -30 5 -44 -6z m-1680 -254
c4 -6 4 -13 1 -17 -9 -9 -106 -8 -106 1 0 4 15 7 34 7 19 0 38 5 41 10 8 13
22 13 30 -1z m-175 -73 c-38 -14 -46 -13 -35 3 3 6 21 11 38 10 l32 -1 -35
-12z m-47 -73 c-7 -2 -19 -2 -25 0 -7 3 -2 5 12 5 14 0 19 -2 13 -5z m-256
-139 c-3 -3 -12 -4 -19 -1 -8 3 -5 6 6 6 11 1 17 -2 13 -5z m-722 -34 c3 -6
-1 -7 -9 -4 -18 7 -21 14 -7 14 6 0 13 -4 16 -10z m-185 -20 c0 -5 -5 -12 -11
-16 -14 -8 -33 11 -25 25 7 11 36 4 36 -9z m270 -40 c0 -5 -4 -10 -10 -10 -5
0 -10 5 -10 10 0 6 5 10 10 10 6 0 10 -4 10 -10z m-425 -70 c3 -5 -3 -10 -14
-10 -12 0 -21 5 -21 10 0 6 6 10 14 10 8 0 18 -4 21 -10z"/>
<path d="M6712 3599 c17 -7 38 -7 60 0 30 8 28 9 -27 9 -50 0 -56 -1 -33 -9z"/>
<path d="M5660 3580 c-13 -8 -12 -10 3 -10 9 0 17 5 17 10 0 12 -1 12 -20 0z"/>
<path d="M3951 3541 c-26 -36 -27 -50 -2 -27 16 15 35 56 26 56 -2 0 -13 -13
-24 -29z"/>
<path d="M3900 3483 c0 -5 -18 -17 -40 -27 -39 -19 -52 -36 -27 -36 16 0 95
69 80 70 -7 0 -13 -3 -13 -7z"/>
<path d="M4460 3305 c0 -8 4 -15 9 -15 5 0 14 7 21 15 10 13 9 15 -9 15 -12 0
-21 -6 -21 -15z"/>
<path d="M4390 3285 c-8 -9 -8 -15 -2 -15 18 0 42 12 42 21 0 14 -26 10 -40
-6z"/>
<path d="M4317 3263 c-13 -15 -13 -20 -2 -30 11 -10 18 -7 35 17 21 29 21 30
2 30 -10 0 -26 -8 -35 -17z m18 -13 c3 -5 1 -10 -4 -10 -6 0 -11 5 -11 10 0 6
2 10 4 10 3 0 8 -4 11 -10z"/>
<path d="M5090 3271 c0 -11 26 -22 34 -14 3 3 3 10 0 14 -7 12 -34 11 -34 0z"/>
<path d="M4224 3215 c16 -23 48 -31 73 -16 16 9 14 10 -9 11 -29 0 -46 15 -26
23 7 3 -1 4 -19 4 -30 -2 -31 -3 -19 -22z"/>
<path d="M4140 3125 c0 -9 5 -15 11 -13 6 2 11 8 11 13 0 5 -5 11 -11 13 -6 2
-11 -4 -11 -13z"/>
<path d="M3760 3120 c0 -5 11 -10 24 -10 14 0 28 5 31 10 4 6 -7 10 -24 10
-17 0 -31 -4 -31 -10z"/>
<path d="M3948 3123 c7 -3 16 -2 19 1 4 3 -2 6 -13 5 -11 0 -14 -3 -6 -6z"/>
<path d="M4065 3110 c-7 -12 18 -24 37 -18 8 3 5 9 -9 16 -14 8 -24 9 -28 2z"/>
<path d="M3848 3083 c6 -2 18 -2 25 0 6 3 1 5 -13 5 -14 0 -19 -2 -12 -5z"/>
<path d="M4158 3083 c7 -3 16 -2 19 1 4 3 -2 6 -13 5 -11 0 -14 -3 -6 -6z"/>
<path d="M2911 3044 c0 -11 3 -14 6 -6 3 7 2 16 -1 19 -3 4 -6 -2 -5 -13z"/>
<path d="M3860 3044 c0 -18 24 -23 43 -9 24 17 22 20 -13 20 -16 0 -30 -5 -30
-11z"/>
<path d="M3120 2979 c0 -5 5 -7 10 -4 6 3 10 8 10 11 0 2 -4 4 -10 4 -5 0 -10
-5 -10 -11z"/>
<path d="M3015 2805 c-3 -8 -7 -22 -10 -31 -3 -9 -10 -12 -17 -8 -9 5 -8 2 1
-10 14 -16 16 -16 39 9 13 14 21 33 18 41 -7 18 -25 18 -31 -1z"/>
<path d="M4950 2780 c-12 -8 -10 -10 8 -10 13 0 20 4 17 10 -7 12 -6 12 -25 0z"/>
<path d="M2946 2735 c-19 -30 -21 -41 -3 -26 8 6 17 8 20 4 4 -3 7 6 7 20 0
33 -3 34 -24 2z"/>
<path d="M3490 2636 c0 -2 9 -6 20 -9 11 -3 20 -1 20 4 0 5 -9 9 -20 9 -11 0
-20 -2 -20 -4z"/>
<path d="M3760 2590 c0 -5 5 -10 10 -10 6 0 10 5 10 10 0 6 -4 10 -10 10 -5 0
-10 -4 -10 -10z"/>
<path d="M4681 4306 c-53 -19 -59 -37 -33 -92 24 -48 35 -49 46 -1 5 20 3 27
-9 27 -44 0 5 33 88 60 20 6 37 13 37 16 0 9 -97 2 -129 -10z"/>
</g>
</svg>
